<svg xmlns="http://www.w3.org/2000/svg" viewBox="0 0 32 32" width="32" height="32" fill="none">
  <!-- 参考图复刻：四颗椭圆趾与带中间凹口的双瓣掌垫 -->
  <ellipse cx="10.3" cy="7.2" rx="3.1" ry="4.6" transform="rotate(-16 10.3 7.2)" fill="#FFC84A" stroke="#21180F" stroke-width="2"/>
  <ellipse cx="21.6" cy="6.6" rx="3.05" ry="4.55" transform="rotate(11 21.6 6.6)" fill="#FFC84A" stroke="#21180F" stroke-width="2"/>
  <ellipse cx="5" cy="14.4" rx="3" ry="3.55" transform="rotate(-34 5 14.4)" fill="#FFC84A" stroke="#21180F" stroke-width="2"/>
  <ellipse cx="27" cy="14.4" rx="3" ry="3.55" transform="rotate(34 27 14.4)" fill="#FFC84A" stroke="#21180F" stroke-width="2"/>
  <path d="M16 14C9.9 14 6.2 18.5 6.2 23.3C6.2 28.1 10.2 30.2 13.9 28.7C15 28.2 15.6 27.5 16 26.8C16.4 27.5 17 28.2 18.1 28.7C21.8 30.2 25.8 28.1 25.8 23.3C25.8 18.5 22.1 14 16 14Z" fill="#FFC84A" stroke="#21180F" stroke-width="2.25" stroke-linejoin="round"/>
</svg>
